<?xml version="1.0" encoding="utf-8"?>
<!-- Generator: Adobe Illustrator 19.0.0, SVG Export Plug-In . SVG Version: 6.00 Build 0)  -->
<svg version="1.1" id="Layer_1" xmlns="http://www.w3.org/2000/svg" xmlns:xlink="http://www.w3.org/1999/xlink" x="0px" y="0px"
	 viewBox="20 141 374 512" style="enable-background:new 20 141 374 512;" xml:space="preserve">
<style type="text/css">
	.st0{fill:#E44D26;}
	.st1{fill:#F16529;}
	.st2{fill:#EBEBEB;}
	.st3{fill:#FFFFFF;}
</style>
<title>HTML5 Logo</title>
<path d="M59.4,141h23v22.8h21.2V141h23v69h-23v-23h-21v23H59.4 M157,164h-20.3v-23h63.7v23H180v46h-23 M210.5,141h24.1l14.8,24.3
	l14.8-24.3h24.1v69h-23v-34.2l-16.1,24.8l-16.1-24.8V210h-22.6 M299.7,141h23v46.2h32.6V210h-55.6"/>
<path class="st0" d="M58.6,612l-33-370.4h362.8l-33,370.2L206.7,653"/>
<path class="st1" d="M207,621.5V272h148.3L327,588"/>
<path class="st2" d="M93,317.3h114v45.4h-64.2l4.2,46.5h60v45.3H105.4 M107.4,477.3H153l3.2,36.3l50.8,13.6v47.4l-93.2-26"/>
<path class="st3" d="M320.6,317.3H206.8v45.4h109.6 M312.3,409.2H206.8v45.4h56l-5.3,59l-50.7,13.6v47.2l93-25.8"/>
</svg>
